<svg width="367" height="391" viewBox="0 0 367 391" fill="none" xmlns="http://www.w3.org/2000/svg">
<g filter="url(#filter0_d_425_1771)">
<path d="M5 5.99999C5 3.23857 7.23858 1 10 1H357C359.761 1 362 3.23858 362 6V377C362 379.761 359.761 382 357 382H10C7.23858 382 5 379.761 5 377V5.99999Z" fill="#F0E8E8" fill-opacity="0.15" shape-rendering="crispEdges"/>
<path d="M357 0.5H10C6.96244 0.5 4.5 2.96242 4.5 5.99999V377C4.5 380.038 6.96243 382.5 10 382.5H357C360.038 382.5 362.5 380.038 362.5 377V6C362.5 2.96243 360.038 0.5 357 0.5Z" stroke="black" shape-rendering="crispEdges"/>
</g>
<defs>
<filter id="filter0_d_425_1771" x="0" y="0" width="367" height="391" filterUnits="userSpaceOnUse" color-interpolation-filters="sRGB">
<feFlood flood-opacity="0" result="BackgroundImageFix"/>
<feColorMatrix in="SourceAlpha" type="matrix" values="0 0 0 0 0 0 0 0 0 0 0 0 0 0 0 0 0 0 127 0" result="hardAlpha"/>
<feOffset dy="4"/>
<feGaussianBlur stdDeviation="2"/>
<feComposite in2="hardAlpha" operator="out"/>
<feColorMatrix type="matrix" values="0 0 0 0 0 0 0 0 0 0 0 0 0 0 0 0 0 0 0.25 0"/>
<feBlend mode="normal" in2="BackgroundImageFix" result="effect1_dropShadow_425_1771"/>
<feBlend mode="normal" in="SourceGraphic" in2="effect1_dropShadow_425_1771" result="shape"/>
</filter>
</defs>
</svg>
